<svg version="1.1" id="Layer_1" xmlns="http://www.w3.org/2000/svg" xmlns:xlink="http://www.w3.org/1999/xlink" x="0px" y="0px"
	 width="100%" viewBox="0 0 1024 1024" enable-background="new 0 0 1024 1024" xml:space="preserve">
<path fill="#000000" opacity="1.000000" stroke="none" 
	d="
M686.603394,526.494019 
	C695.562256,524.301514 704.026001,521.753601 712.812988,520.649292 
	C714.649353,520.418518 716.376709,519.826599 717.858643,518.644165 
	C718.926636,517.792053 720.374512,516.794861 721.484192,517.324402 
	C727.454102,520.173645 727.261108,516.305359 727.999268,512.175598 
	C730.520874,498.067719 731.053894,483.751495 732.916260,469.582123 
	C733.165649,467.684418 732.822876,465.496521 735.073120,464.402252 
	C737.210876,464.688232 737.164062,466.322357 737.168152,467.786072 
	C737.177124,470.998169 737.088501,473.987762 740.813354,475.710510 
	C745.010315,477.651581 748.465942,477.277618 751.469604,473.908478 
	C751.030151,471.435364 750.549377,469.020569 750.181152,466.588745 
	C749.630859,462.954193 750.265808,460.820282 754.575317,459.222107 
	C758.466187,457.779114 761.223572,454.041168 766.377380,454.751221 
	C773.149719,455.684174 775.053040,457.748047 774.250793,464.415802 
	C773.645813,469.444458 776.088684,474.319000 775.332520,479.500305 
	C774.661682,484.097107 774.681519,488.793915 774.376587,493.445251 
	C774.263977,495.162964 773.850586,497.481903 772.339661,497.734070 
	C765.249268,498.917419 766.078796,505.771301 763.380798,509.957001 
	C760.400391,514.580811 759.150208,520.052490 759.188660,525.689087 
	C759.227966,531.461243 756.210449,536.981445 757.969238,542.948853 
	C758.630859,545.193787 755.607788,545.914185 754.796814,548.189209 
	C757.862000,552.382080 762.172668,555.558105 766.116699,559.013611 
	C790.975159,580.792908 819.205627,597.492432 848.267090,612.854980 
	C869.028381,623.829956 890.170227,634.044128 911.860352,643.088501 
	C913.282715,643.681641 915.212769,643.973267 915.111084,647.695251 
	C844.877258,630.770142 777.449097,608.733093 718.890991,562.881592 
	C729.624634,577.873230 742.537292,589.500122 754.766846,601.914246 
	C752.811462,604.464172 750.700745,603.763855 748.608337,603.476868 
	C703.932251,597.350159 663.003967,581.482910 625.653870,556.271362 
	C624.478027,555.477661 623.400513,554.302979 621.492126,554.438354 
	C622.658936,563.238770 628.346558,569.702026 633.284363,576.845215 
	C630.104248,578.247009 628.534607,576.282532 626.909851,575.268311 
	C607.616882,563.225220 591.136780,548.175903 577.846252,529.623901 
	C571.149719,520.276367 563.830627,511.396515 554.694519,504.239014 
	C551.978699,502.111420 549.029175,499.083679 545.424377,500.957092 
	C541.635010,502.926392 542.791809,507.217560 543.286499,510.514740 
	C544.718933,520.060974 549.145142,528.474915 553.903320,536.742249 
	C555.315674,539.196106 557.705322,541.373962 557.352417,544.596313 
	C555.212830,545.475769 554.250183,544.008545 553.281616,543.030273 
	C541.218262,530.844727 527.986877,519.495911 518.935242,504.870880 
	C513.474548,496.047852 507.017548,489.891876 497.542603,486.235046 
	C492.173615,484.162903 488.243317,479.881378 484.195801,475.897461 
	C481.341187,473.087738 478.279266,470.521820 474.515259,468.951447 
	C468.866821,466.594940 465.445709,467.937317 463.769470,473.704346 
	C459.546906,488.232391 459.985168,502.637665 465.522644,516.799805 
	C469.309998,526.485962 474.653076,535.296082 480.660767,543.738281 
	C481.580139,545.030273 483.148376,546.073914 482.418060,549.455139 
	C465.448212,540.687317 450.400848,530.214600 437.415497,516.490540 
	C443.630798,539.146851 455.382782,558.862549 469.351410,577.326294 
	C483.235352,595.678162 499.832672,611.452698 517.958740,625.642456 
	C515.954590,628.331177 514.188660,627.014648 512.588440,626.526855 
	C475.530151,615.230408 441.381561,598.421814 411.863647,572.970581 
	C404.030884,566.216980 396.784119,558.820740 390.687195,550.440063 
	C388.389893,547.282227 386.091461,546.808899 382.585602,548.060303 
	C366.531982,553.790283 364.685425,559.107239 374.289124,573.201172 
	C377.192596,577.462158 380.495087,581.449524 383.468781,585.665222 
	C384.436920,587.037720 386.356720,588.149536 385.500519,590.435181 
	C383.410187,591.631287 381.604645,590.280029 379.844666,589.642578 
	C362.533173,583.372192 347.332947,573.656555 333.781647,561.255798 
	C327.148499,555.185791 320.520020,549.150574 312.895233,544.231506 
	C302.754395,537.689209 293.312836,538.442627 283.695557,545.318237 
	C272.767426,553.131042 265.214813,563.934326 257.062256,574.246582 
	C252.012115,580.634583 247.337479,587.282043 241.472412,593.067871 
	C235.205338,599.250183 227.748337,602.031982 219.396622,602.047546 
	C205.561676,602.073303 193.569595,606.442749 182.003708,613.983337 
	C167.883392,623.189270 151.973770,629.068542 136.400009,635.436218 
	C129.771286,638.146545 123.067825,640.677002 116.366081,643.203613 
	C114.905769,643.754211 113.434349,644.887268 111.785988,644.065674 
	C110.923515,642.162964 112.215927,641.472839 113.260773,640.690796 
	C140.333511,620.428406 167.400528,600.158386 194.490753,579.919373 
	C203.565811,573.139465 212.637848,566.352112 221.835419,559.740906 
	C226.836533,556.145996 224.433685,551.207336 223.995804,547.091309 
	C222.798386,535.835632 219.651489,525.006714 214.383789,514.882629 
	C213.918503,513.988403 213.662247,512.843445 212.566513,512.678650 
	C207.320877,511.889832 206.604065,507.878662 206.371368,503.778015 
	C205.962067,496.564697 203.120377,489.384827 205.942703,482.095032 
	C206.094650,481.702545 205.773087,481.133728 205.693283,480.643494 
	C204.378204,472.566986 209.870255,467.865326 217.770996,470.301422 
	C224.064621,472.242004 228.234726,477.846405 227.190033,484.339478 
	C226.447678,488.953430 228.296829,490.623474 232.236267,490.691650 
	C237.029343,490.774628 239.690414,487.995209 239.331100,483.725281 
	C239.194519,482.102234 238.453094,480.427734 240.458069,479.074463 
	C243.014084,479.408508 242.976639,481.556244 243.280716,483.460632 
	C244.902191,493.615265 246.348099,503.802460 248.218506,513.911011 
	C249.174515,519.077637 249.337494,524.490295 251.924301,529.649292 
	C254.704910,528.754761 257.368042,528.066528 260.007141,529.962708 
	C261.958435,531.364624 263.457428,529.443359 264.884186,528.515198 
	C274.515320,522.249695 283.865997,515.570435 293.743835,509.659607 
	C298.870605,506.591766 303.611542,506.471344 308.907837,508.758911 
	C318.511963,512.907166 325.422119,520.479065 332.869659,527.338989 
	C337.956543,532.024536 342.815491,533.192322 349.152069,530.317871 
	C354.805176,527.753479 359.673492,523.870056 361.759491,518.057922 
	C366.439789,505.017212 376.041595,496.212769 386.197021,487.735809 
	C402.211761,474.367828 419.082977,462.209900 437.129456,451.711914 
	C437.821381,451.309387 438.395538,450.704498 439.364166,449.918274 
	C434.471191,443.967468 431.127686,437.452728 429.359131,430.037292 
	C424.136627,408.139313 436.724243,385.011627 458.108337,377.672882 
	C490.401093,366.590454 521.720520,390.666901 519.095825,424.708160 
	C518.484436,432.638031 515.942749,440.110474 510.476105,446.121887 
	C507.282257,449.634033 506.931274,451.909790 510.952637,455.380219 
	C521.382385,464.381042 533.446045,469.194641 546.729858,472.090302 
	C555.103943,473.915710 564.045105,473.149261 571.865906,477.766754 
	C576.924988,480.753693 581.293640,484.457977 583.458374,489.785187 
	C588.643982,502.547058 598.948608,508.303741 611.342041,511.783875 
	C619.583984,514.098206 628.022888,515.017822 636.478027,515.533142 
	C642.176880,515.880493 645.810120,518.735229 648.477539,523.226318 
	C650.342651,526.366699 651.816406,529.744324 653.395020,533.049377 
	C657.788452,542.247498 665.130127,547.967346 675.684265,551.848572 
	C671.805786,546.948120 668.484619,543.078796 666.044250,538.576538 
	C664.040161,534.879333 664.851074,532.637329 668.908997,531.509094 
	C674.684814,529.903198 680.446594,528.247192 686.603394,526.494019 
M740.492554,531.070312 
	C743.077209,534.161865 744.792969,538.059082 749.334900,540.652771 
	C752.085205,529.830933 750.135010,519.482544 749.985901,509.246002 
	C749.952454,506.948242 747.127930,506.640839 745.151611,506.805206 
	C743.074890,506.977997 743.446838,508.907104 743.358093,510.339600 
	C743.223633,512.509399 743.567810,514.615051 744.075745,516.738159 
	C744.925903,520.291809 744.068542,522.984070 739.969910,523.795898 
	C738.900757,524.007690 737.583923,524.039612 736.951416,525.786743 
	C737.918457,527.218811 739.019409,528.849121 740.492554,531.070312 
M240.282516,542.410767 
	C240.100922,540.295044 242.898331,539.323242 242.213776,536.356018 
	C234.007629,535.694702 234.716110,529.818787 235.713821,523.795349 
	C235.740524,523.634277 235.725021,523.463501 235.711380,523.298706 
	C235.565674,521.538940 235.989426,519.326660 233.209030,519.340210 
	C230.512253,519.353333 229.374466,520.954224 229.508774,523.550720 
	C229.713974,527.518005 229.988892,531.482422 230.134277,535.451721 
	C230.285812,539.588867 230.059113,543.748657 231.157501,547.809631 
	C231.513245,549.124817 232.032059,551.009277 233.511490,550.290222 
	C236.575714,548.800781 240.703018,547.950867 240.282516,542.410767 
M740.315857,495.313141 
	C742.457092,495.087982 744.595642,494.832428 746.740356,494.647583 
	C748.363037,494.507690 749.743225,494.079529 749.850342,492.155853 
	C749.952637,490.315857 750.031311,488.363831 747.954590,487.455444 
	C746.751709,486.929230 745.414185,486.392181 744.142456,486.404510 
	C740.921753,486.435638 738.147522,485.476471 735.495789,482.509033 
	C735.402710,487.823364 733.463074,492.071960 734.534668,496.629974 
	C736.347168,496.213623 737.936035,495.848633 740.315857,495.313141 
M242.704376,505.217743 
	C242.278534,502.635773 241.852707,500.053802 241.179092,495.969513 
	C239.001022,500.018219 236.088547,499.863129 233.335358,500.271484 
	C230.804184,500.646942 228.971985,501.743622 229.124603,504.802734 
	C229.278671,507.891479 231.652649,507.414337 233.491013,507.644012 
	C236.573761,508.029144 239.760559,507.586304 243.089539,509.542938 
	C242.939484,507.853363 242.854141,506.892639 242.704376,505.217743 
M733.940918,502.345245 
	C733.799805,502.281372 733.658630,502.217499 733.517517,502.153595 
	C733.453735,502.304688 733.325439,502.460266 733.335571,502.606262 
	C733.703613,507.909760 731.167664,513.034668 731.895752,518.621277 
	C735.631165,517.982300 736.135010,515.646667 735.820557,513.051758 
	C735.405334,509.624512 734.710999,506.231110 733.940918,502.345245 
M244.795395,517.962219 
	C244.689606,517.655457 244.590439,517.345764 244.460449,517.049683 
	C244.453156,517.033081 244.105606,517.085876 244.060913,517.177063 
	C241.934982,521.515137 243.014404,527.763062 246.455307,529.768066 
	C246.987976,525.782593 244.995407,522.287537 244.795395,517.962219 
z"/>
<path fill="#000000" opacity="1.000000" stroke="none" 
	d="
M597.665649,359.862244 
	C597.665527,332.735931 597.665527,306.090607 597.665527,279.445251 
	C597.913696,279.435547 598.161865,279.425842 598.409973,279.416107 
	C598.035034,282.921478 597.481018,286.419342 597.333862,289.934265 
	C597.176025,293.704407 595.444641,295.207306 591.715881,295.273193 
	C584.558105,295.399689 577.406128,296.002441 570.250183,296.033325 
	C566.250427,296.050598 564.238342,297.581879 564.385864,301.543732 
	C564.569214,306.468109 568.422668,304.709717 570.754395,304.456329 
	C575.905212,303.896606 581.055298,303.822998 586.210022,303.578766 
	C588.914917,303.450592 590.193542,304.364319 590.307617,307.191833 
	C590.562256,313.508545 590.913574,319.825043 591.417297,326.126312 
	C591.647949,329.012207 590.887268,330.417358 587.736328,330.548065 
	C581.754456,330.796234 575.788452,331.405975 569.810181,331.773712 
	C566.577209,331.972595 565.249939,333.328979 565.224060,336.781677 
	C565.166809,344.435669 564.528687,352.083618 564.352356,359.739258 
	C564.280029,362.878815 563.153320,364.249939 559.937134,364.279846 
	C551.778198,364.355652 543.619873,364.586182 535.463989,364.842651 
	C532.446838,364.937500 531.354187,363.438660 531.161804,360.641083 
	C530.994446,358.207642 531.635559,355.643860 529.964539,352.777344 
	C523.812866,355.044983 517.614868,357.317810 511.425995,359.615082 
	C506.899292,361.295349 502.350372,362.923706 497.877869,364.739075 
	C495.397186,365.745972 493.866119,365.193665 492.578064,362.836212 
	C490.663147,359.331299 488.332672,356.050110 486.476746,352.517273 
	C484.781433,349.290131 482.489197,348.070099 478.817566,348.426788 
	C473.354431,348.957428 467.847412,349.173767 462.356384,349.222382 
	C459.511230,349.247589 458.078003,350.377899 457.428162,353.038116 
	C456.560028,356.591888 455.286469,360.062378 454.639221,363.650208 
	C453.917175,367.652802 451.873535,367.878601 448.576111,366.758270 
	C438.332977,363.277924 428.025452,359.987427 417.768555,356.546814 
	C415.965546,355.942017 414.552032,355.603363 412.704437,356.869446 
	C397.431549,367.335510 380.632263,368.979034 363.037109,364.797058 
	C358.201538,363.647797 353.553955,361.692413 348.842377,360.043304 
	C346.347595,359.170105 345.677521,357.610382 346.668213,354.978516 
	C349.189819,348.279480 351.573181,341.523468 353.804413,334.722168 
	C354.903687,331.371368 356.734680,331.217316 359.482819,332.598602 
	C363.823608,334.780334 368.489105,335.988892 373.192719,337.151550 
	C377.117645,338.121704 380.814331,337.387482 384.503937,336.362854 
	C386.494354,335.810059 388.245972,334.563416 388.369507,332.270386 
	C388.484711,330.130981 386.859100,329.016235 385.086884,328.325806 
	C382.454193,327.300110 379.805206,326.276550 377.089966,325.512177 
	C373.540039,324.512817 370.206787,323.048584 366.897217,321.466278 
	C342.991455,310.036743 347.019257,285.031952 359.254150,272.757324 
	C370.844208,261.129669 385.461700,259.158325 400.855408,260.106842 
	C406.328857,260.444061 411.733185,261.533356 417.010040,263.168793 
	C420.187531,264.153564 421.697876,265.521942 420.573242,269.311890 
	C418.173248,277.399414 416.268402,285.633911 414.031525,294.309113 
	C407.120514,292.389221 401.078827,289.510162 394.456299,288.720703 
	C390.362854,288.232788 386.499176,288.742950 382.723969,290.173615 
	C381.290161,290.716980 379.974487,291.760376 380.040009,293.455719 
	C380.114746,295.390594 381.872742,295.600281 383.323425,295.904053 
	C391.626404,297.642761 399.884430,299.284149 407.562836,303.320862 
	C420.057739,309.889618 426.240509,319.870850 426.276459,334.338409 
	C440.910339,307.944580 455.544250,281.550751 470.880615,253.889923 
	C490.836334,284.162384 510.161469,313.478241 529.486572,342.794098 
	C529.987732,342.683777 530.488892,342.573456 530.990051,342.463165 
	C530.990051,339.898865 531.000610,337.334534 530.988403,334.770294 
	C530.889893,314.109528 530.930176,293.446289 530.577271,272.789825 
	C530.497009,268.093689 531.969849,266.244263 536.583130,265.960175 
	C552.195801,264.998932 567.794922,263.815948 583.397949,262.699738 
	C586.550110,262.474213 589.692139,262.059082 592.846924,261.934784 
	C595.714600,261.821777 598.829956,260.790558 600.996033,263.992188 
	C601.677551,264.999542 603.151306,264.639923 604.305420,264.500732 
	C613.386597,263.405731 622.484680,262.427002 631.536987,261.128876 
	C635.120972,260.614899 636.515686,261.717316 636.322876,265.273102 
	C635.917358,272.751587 635.649170,280.237488 635.247742,287.716248 
	C633.999207,310.981445 632.590515,334.239105 631.550781,357.513428 
	C631.346313,362.090515 629.145081,362.997620 625.383057,363.323639 
	C618.257385,363.941254 611.144775,364.743652 604.045959,365.624695 
	C597.892395,366.388428 597.904175,366.483398 597.665649,359.862244 
M469.637695,327.588562 
	C472.258423,326.647278 475.294403,327.201324 478.065216,325.209412 
	C477.076233,320.839905 475.525543,316.708527 473.080597,312.236328 
	C470.112671,316.605133 468.904816,320.791321 467.143188,324.710876 
	C466.339325,326.499390 466.718475,327.630707 469.637695,327.588562 
z"/>
<path fill="#000000" opacity="1.000000" stroke="none" 
	d="
M237.373657,346.531952 
	C235.934280,342.456299 234.633224,338.751831 232.851318,333.678223 
	C227.032196,343.631775 221.895645,352.417755 216.043762,362.427307 
	C209.172836,351.942230 202.946426,342.440674 195.903473,331.693054 
	C191.681778,344.175537 187.850327,355.504181 183.700104,367.775299 
	C177.241943,363.641479 171.552063,359.681458 165.553085,356.264038 
	C161.065750,353.707733 159.791962,350.578674 159.222031,345.262054 
	C157.957291,333.463837 162.586487,323.354126 166.046707,312.858398 
	C171.675491,295.784912 177.650345,278.825470 183.487183,261.820648 
	C184.127731,259.954498 184.484940,257.940887 186.847961,255.774811 
	C196.645523,268.097961 206.383560,280.346252 215.792465,292.180542 
	C225.917465,282.642395 235.754822,273.375214 246.438705,263.310577 
	C253.929016,283.914703 261.167419,303.825928 268.405853,323.737152 
	C268.707153,323.746399 269.008453,323.755646 269.309723,323.764893 
	C269.430420,321.610352 269.613129,319.457184 269.661987,317.301025 
	C270.046722,300.318604 270.395477,283.335358 270.778625,266.352905 
	C270.912872,260.402954 271.444366,260.035126 277.206207,261.080963 
	C285.878387,262.655060 294.546753,264.266602 303.254211,265.621429 
	C306.379028,266.107635 307.542236,267.496429 307.369904,270.574677 
	C306.439819,287.190948 305.621979,303.813446 304.692322,320.429718 
	C304.460266,324.577576 303.756744,328.717651 305.063232,332.807831 
	C305.640625,334.615448 306.432617,336.435333 308.597931,336.503326 
	C310.723083,336.570099 311.862427,334.877869 312.477844,333.118988 
	C314.025696,328.695038 314.791595,324.152222 314.480225,319.407990 
	C313.521240,304.796692 312.667664,290.178406 311.808228,275.560760 
	C311.680939,273.395660 311.439331,271.110016 314.496094,270.536774 
	C324.755035,268.613037 335.005127,266.642059 345.363312,264.669189 
	C346.873627,268.741180 346.930115,272.422333 347.042267,276.006226 
	C347.552917,292.321045 347.938599,308.640656 348.228302,324.961029 
	C348.340912,331.305298 347.589111,337.619171 345.654083,343.676483 
	C340.764648,358.982147 328.285126,367.424591 310.000793,368.302399 
	C295.071075,369.019165 282.236633,365.380371 273.878815,351.002533 
	C264.732758,358.388916 256.020935,365.424622 246.368011,373.220367 
	C243.190643,363.778290 240.351318,355.340698 237.373657,346.531952 
z"/>
<path fill="#000000" opacity="1.000000" stroke="none" 
	d="
M687.274841,260.834473 
	C692.907349,260.846252 698.161621,260.285065 703.211426,261.058441 
	C720.938782,263.773346 729.833191,278.929962 724.786133,297.334747 
	C721.877380,307.941711 715.859009,316.596252 707.602722,323.751831 
	C705.754333,325.353760 703.819031,326.855408 701.453369,328.787384 
	C709.955078,334.467102 717.936768,339.799469 726.305725,345.390503 
	C722.855713,351.153015 718.152893,355.381317 714.158569,360.153992 
	C707.247986,368.411316 707.180176,368.396271 698.465149,362.100464 
	C693.332520,358.392578 688.289124,354.561279 683.166382,350.839508 
	C681.600281,349.701691 680.233337,348.117126 677.742249,348.035248 
	C676.576294,352.608063 677.196716,357.259552 677.049744,361.834656 
	C676.920898,365.845825 675.664246,367.451355 671.257996,366.736511 
	C664.204712,365.592255 657.053467,364.983612 649.922119,364.420929 
	C646.739868,364.169830 645.637695,362.847778 645.589966,359.736206 
	C645.457031,351.077209 644.996948,342.423645 644.817261,333.764832 
	C644.392212,313.275848 644.024902,292.785583 643.698853,272.294769 
	C643.592590,265.614746 643.815186,265.510925 650.580017,264.793304 
	C662.656982,263.512177 674.728882,262.182739 687.274841,260.834473 
M678.724976,293.179993 
	C677.419800,293.527954 675.773926,293.900635 675.596558,295.313690 
	C674.888733,300.952820 673.378296,306.613373 674.940613,312.530853 
	C679.785156,312.153015 682.999146,309.463837 686.145203,306.837189 
	C690.446899,303.245605 692.337646,298.154755 690.342957,295.068726 
	C687.600403,290.825806 683.414062,292.202881 678.724976,293.179993 
z"/>
<path fill="#000000" opacity="1.000000" stroke="none" 
	d="
M796.518677,665.475647 
	C793.615967,672.615417 790.524475,679.289612 788.187866,686.218323 
	C786.521240,691.160217 783.837097,693.314758 778.683350,692.428284 
	C777.086731,692.153564 775.431519,692.219299 772.809265,692.074158 
	C776.879333,681.825073 780.701904,672.199219 784.524658,662.572937 
	C778.032104,660.197815 776.524963,660.781189 774.235901,666.337036 
	C771.191223,673.726868 767.922791,681.038696 765.240051,688.558716 
	C763.229126,694.195496 758.841492,692.059387 755.202576,692.297241 
	C751.563049,692.535156 750.420410,689.855347 749.872009,686.868835 
	C749.213501,683.282104 748.637878,679.680115 747.755737,674.492981 
	C745.842285,679.068237 744.067383,682.173767 743.251953,685.513550 
	C741.826294,691.352783 738.385925,693.366028 732.720581,692.395020 
	C731.434937,692.174683 730.115417,692.151428 729.023132,692.055969 
	C727.891296,690.683350 728.549255,689.578369 728.964905,688.554382 
	C733.599731,677.137085 738.399475,665.784729 742.869507,654.303711 
	C744.601868,649.854248 748.081360,651.024719 751.232666,650.934753 
	C754.368774,650.845215 756.778564,651.951538 757.413696,655.435730 
	C758.150085,659.475647 758.930969,663.507507 759.966553,668.995361 
	C762.392273,663.218384 764.338318,658.735046 766.151123,654.198547 
	C766.975220,652.136169 768.138672,650.865967 770.532410,650.872375 
	C787.526672,650.918274 804.521057,650.911438 821.515381,650.955627 
	C822.132385,650.957214 822.748474,651.313904 824.270264,651.785889 
	C820.511719,661.557373 816.817566,671.161438 813.005554,681.071899 
	C816.727966,681.344971 817.004883,678.981812 817.710693,677.308838 
	C820.817200,669.945618 823.748657,662.508545 826.852295,655.144104 
	C828.445801,651.362793 836.812866,649.055664 840.120483,651.331360 
	C841.616089,652.360352 841.101196,653.656189 840.606873,654.883545 
	C836.563660,664.923157 832.772766,675.077820 828.335449,684.941223 
	C824.563110,693.326538 809.039307,696.536133 801.684937,690.839478 
	C798.468323,688.347839 798.052063,684.956848 799.346130,681.375000 
	C800.929138,676.993347 802.792236,672.713684 804.464172,668.363037 
	C805.223267,666.387695 806.260010,664.457214 806.204468,661.944824 
	C802.307373,661.343750 798.442871,659.893494 796.518677,665.475647 
z"/>
<path fill="#000000" opacity="1.000000" stroke="none" 
	d="
M650.014282,433.247620 
	C645.395691,433.180420 643.653931,431.541809 643.408569,426.907410 
	C642.773804,414.914734 642.898804,402.927399 642.676514,390.938202 
	C642.611633,387.436066 643.725159,385.837463 647.448181,385.615662 
	C653.417969,385.259949 659.341736,384.073608 665.311340,383.784973 
	C679.084839,383.118988 685.406372,393.181213 679.279541,405.593140 
	C677.348267,409.505585 674.213806,412.488312 671.251038,415.776794 
	C673.708740,418.742401 676.727478,420.000031 680.236816,421.757080 
	C687.783569,408.183655 695.238831,394.774811 703.331604,380.219330 
	C713.652771,396.032257 723.230652,410.706421 733.370605,426.241669 
	C727.018738,428.649292 721.539978,430.897095 715.936646,432.773102 
	C713.373169,433.631409 712.401428,431.088898 711.706543,429.403961 
	C709.512512,424.083649 705.023926,425.568146 701.027588,425.407318 
	C697.188171,425.252808 696.998596,428.332733 696.380981,430.797028 
	C695.614990,433.853088 693.992981,434.423126 691.241882,433.367523 
	C688.914490,432.474426 686.456421,431.919434 684.135559,431.011871 
	C680.406250,429.553528 676.942749,428.500214 674.030457,432.643555 
	C672.589905,434.692993 670.829285,433.454620 669.247314,432.375610 
	C665.993591,430.156403 663.165283,427.266602 659.355957,425.782227 
	C657.422913,428.057739 659.193420,430.902893 657.628052,433.236206 
	C655.358948,434.268463 652.883911,432.996948 650.014282,433.247620 
M661.043030,406.477081 
	C661.884094,405.708069 662.845093,405.032654 663.536865,404.147034 
	C664.467224,402.955963 665.187683,401.502777 663.867126,400.173523 
	C662.539307,398.837036 660.739746,398.985687 659.294617,399.787445 
	C656.828796,401.155609 657.225586,403.712616 657.488220,405.941803 
	C657.729065,407.986023 659.172546,407.445343 661.043030,406.477081 
M703.922058,409.609589 
	C703.554321,410.330353 703.165100,411.041107 702.824219,411.774384 
	C702.377075,412.736206 702.211182,413.715210 703.350220,414.295197 
	C703.727295,414.487213 704.361084,414.476959 704.747986,414.290466 
	C705.861694,413.753723 705.791260,412.689819 705.510681,411.735596 
	C705.286743,410.974091 704.803101,410.288971 703.922058,409.609589 
z"/>
<path fill="#000000" opacity="1.000000" stroke="none" 
	d="
M581.599365,425.431824 
	C576.383057,426.158264 578.197998,431.312378 575.105896,434.010681 
	C569.616699,432.978027 564.016174,430.707672 557.451294,428.373077 
	C566.207031,412.427887 574.694153,396.971771 583.943848,380.127014 
	C594.306091,395.969513 603.886353,410.616486 614.059021,426.169037 
	C607.706482,428.594604 602.077637,430.824677 596.380798,432.864929 
	C594.867188,433.407013 593.755310,432.125183 593.327332,430.868652 
	C591.378052,425.145782 586.894287,424.909607 581.599365,425.431824 
M583.679749,411.325287 
	C583.511475,412.528320 581.676758,414.204956 584.509583,414.569733 
	C585.551697,414.703979 586.711304,414.182739 586.452148,413.013336 
	C586.219360,411.962860 586.898987,409.137878 583.679749,411.325287 
z"/>
<path fill="#000000" opacity="1.000000" stroke="none" 
	d="
M270.699646,683.765198 
	C267.549835,686.755554 265.790253,685.837158 264.895447,682.271729 
	C264.335052,680.038574 263.834656,677.790405 262.997894,674.233765 
	C261.083038,678.727234 259.196777,682.021118 258.278412,685.565796 
	C256.782288,691.340637 253.373337,693.373108 247.721481,692.448975 
	C246.290039,692.214905 244.717590,692.769287 243.194305,691.438110 
	C243.899918,686.759094 246.312012,682.547180 248.041641,678.125793 
	C251.135666,670.216736 254.544632,662.430603 257.624695,654.516357 
	C258.819214,651.447083 260.877472,650.693176 263.862305,650.846252 
	C266.890747,651.001587 269.360168,651.519836 270.467560,654.931763 
	C271.573547,658.339355 271.817657,662.088440 274.081512,665.423462 
	C282.812439,659.803650 287.645844,646.890869 301.308411,651.618774 
	C302.253174,653.512634 301.071106,655.123840 300.412292,656.743774 
	C296.648071,665.999084 292.836639,675.235291 289.000061,684.460938 
	C285.312134,693.329041 284.184784,693.869690 273.915131,691.591187 
	C274.021393,686.552246 277.735565,682.546021 278.421448,676.947998 
	C275.167877,678.722839 273.359528,681.495728 270.699646,683.765198 
z"/>
<path fill="#000000" opacity="1.000000" stroke="none" 
	d="
M431.446716,679.063721 
	C431.097748,677.781311 430.833374,676.845459 430.367859,675.197510 
	C428.639648,679.250427 426.745422,682.614441 425.774536,686.226624 
	C424.379181,691.418091 421.335358,693.206848 416.263428,692.417236 
	C414.647064,692.165588 412.921936,692.644592 411.397522,691.703979 
	C410.592682,690.112183 411.548309,688.765869 412.082855,687.437073 
	C416.372040,676.775085 420.981232,666.232849 424.945221,655.452759 
	C426.879303,650.192932 430.650482,650.816589 434.636566,650.898254 
	C438.585297,650.979126 440.114136,653.237366 440.594360,656.881531 
	C441.062714,660.435608 441.907135,663.940186 442.846863,668.818115 
	C444.752686,664.276245 446.570618,661.073242 447.435608,657.630798 
	C448.915924,651.739380 452.518646,649.956726 458.097961,650.853760 
	C459.378296,651.059570 460.778839,650.565063 462.163269,651.727417 
	C462.242493,655.335632 460.304657,658.552917 459.016968,661.855225 
	C455.509857,670.849121 451.456787,679.632019 448.026337,688.653076 
	C445.918335,694.196411 441.538971,692.040405 437.891693,692.307739 
	C434.530457,692.554260 433.287323,690.155945 432.776794,687.296997 
	C432.309021,684.677551 431.942474,682.039917 431.446716,679.063721 
z"/>
<path fill="#000000" opacity="1.000000" stroke="none" 
	d="
M392.634827,660.644531 
	C393.073547,659.517639 393.392975,658.749634 393.701965,657.977356 
	C396.778687,650.287842 399.927032,648.969299 408.328369,651.858215 
	C408.999176,653.044312 408.410217,654.127197 407.982605,655.180908 
	C403.418640,666.427124 398.748322,677.631104 394.287872,688.918091 
	C392.251190,694.071777 387.986145,692.028748 384.464813,692.321716 
	C381.104736,692.601318 379.739349,690.317993 379.195038,687.468567 
	C378.451538,683.576233 377.865021,679.653931 377.112976,675.157166 
	C374.729401,678.480591 373.811646,681.951416 372.453339,685.185974 
	C369.326141,692.632935 369.366913,692.661987 361.232605,692.366638 
	C360.101410,692.325562 358.976868,692.101257 357.968536,691.976562 
	C356.996948,689.968628 358.077515,688.511536 358.675537,687.031982 
	C362.976593,676.390747 367.604614,665.870972 371.545166,655.099121 
	C373.556091,649.602112 377.590363,650.983154 381.372406,650.931946 
	C385.155853,650.880676 386.557068,653.458557 387.055389,656.682495 
	C387.604980,660.238281 387.918976,663.834961 389.426910,668.067139 
	C390.672577,665.212891 391.591614,663.107178 392.634827,660.644531 
z"/>
<path fill="#000000" opacity="1.000000" stroke="none" 
	d="
M532.374268,387.628052 
	C534.944458,391.037689 536.277100,394.943420 539.759460,397.543976 
	C543.202637,394.271515 545.420471,390.340118 547.834106,386.627014 
	C549.689148,383.773346 551.142700,383.213287 554.155457,385.240509 
	C565.757385,393.047272 565.823730,392.949219 557.357117,404.088440 
	C556.449951,405.281982 555.661316,406.596252 554.607117,407.642303 
	C548.816467,413.388184 546.139771,420.164917 547.322998,428.368103 
	C547.983826,432.949280 545.561035,433.665771 541.639282,432.959625 
	C529.238892,430.726776 530.717163,433.137238 530.845154,420.264435 
	C530.891113,415.636566 529.807800,411.800842 526.833496,408.359650 
	C525.748779,407.104675 524.947571,405.607971 523.894836,404.321533 
	C516.331238,395.078308 518.573242,389.061157 528.823181,383.946930 
	C530.726929,384.247559 531.106873,386.135864 532.374268,387.628052 
z"/>
<path fill="#000000" opacity="1.000000" stroke="none" 
	d="
M860.972412,687.042786 
	C858.235901,692.024048 853.195251,693.986572 847.851379,692.236633 
	C845.381287,691.427673 845.571228,689.707642 846.206665,687.841309 
	C847.149414,685.072571 848.174255,682.331848 849.091492,679.781128 
	C847.357666,678.314270 846.427917,679.042847 845.820740,680.138428 
	C845.099976,681.438965 844.588684,682.858765 844.024048,684.242126 
	C840.346252,693.251892 838.786255,694.010559 828.583069,691.686523 
	C827.817688,689.967102 828.739624,688.484741 829.343750,686.982788 
	C833.624512,676.340271 838.007629,665.738037 842.174744,655.051392 
	C843.386963,651.942566 845.216309,650.634888 848.550720,650.818481 
	C852.531067,651.037598 856.539673,650.731323 860.522156,650.929688 
	C867.700623,651.287231 870.417786,654.142334 870.869995,662.207336 
	C870.203369,664.204773 869.620422,665.502991 868.794556,667.052734 
	C866.904175,670.094360 864.012146,671.620911 861.741760,673.865173 
	C862.200562,676.649719 863.757996,679.238525 862.895142,682.465088 
	C862.202087,684.204956 861.587280,685.623901 860.972412,687.042786 
M851.935669,665.762573 
	C855.497925,665.254883 855.497925,665.254883 854.688354,661.805054 
	C852.427612,661.864014 852.489258,663.807617 851.935669,665.762573 
z"/>
<path fill="#000000" opacity="1.000000" stroke="none" 
	d="
M131.030563,685.981689 
	C129.285736,691.796326 125.224228,693.070618 119.593712,692.510742 
	C115.654419,692.119141 114.562378,690.932434 115.967300,687.207153 
	C116.951515,684.597473 119.113342,682.150818 117.833847,678.697754 
	C114.407936,679.327515 114.506958,682.351074 113.650452,684.370789 
	C109.919876,693.168213 108.132233,694.098755 98.172493,691.678345 
	C97.530983,689.744446 98.656479,688.135498 99.306252,686.497437 
	C103.410728,676.149841 107.706055,665.876343 111.684868,655.481384 
	C113.033005,651.959229 115.100967,650.540405 118.801399,650.812622 
	C121.942871,651.043762 125.115921,650.812439 128.273865,650.860535 
	C132.881866,650.930786 137.592758,651.263672 139.596802,656.306519 
	C141.697098,661.591492 139.251755,666.035828 135.872604,669.951111 
	C134.591599,671.435425 132.850006,672.522156 131.040100,674.020447 
	C133.068542,677.660645 132.599945,681.490295 131.076019,685.660400 
	C131.001526,686.015686 131.030563,685.981689 131.030563,685.981689 
z"/>
<path fill="#000000" opacity="1.000000" stroke="none" 
	d="
M509.463257,691.866577 
	C504.923828,688.768677 504.880157,684.528564 506.247406,680.491455 
	C508.532318,673.744568 511.108795,667.054626 514.138611,660.611694 
	C518.803711,650.691467 527.864075,648.883606 538.306702,651.557861 
	C542.528198,652.639038 544.658752,656.024536 544.223755,660.272888 
	C543.100342,671.244019 539.223389,681.552551 531.929565,689.569153 
	C526.103333,695.972778 517.516235,693.693481 509.463257,691.866577 
M523.516968,679.849121 
	C525.578125,674.061768 528.578674,668.571960 529.193115,662.281189 
	C523.896423,667.968506 522.452637,675.307922 519.424622,682.021973 
	C521.973877,682.977295 522.466370,681.536011 523.516968,679.849121 
z"/>
<path fill="#000000" opacity="1.000000" stroke="none" 
	d="
M618.690857,650.661621 
	C628.147949,651.999512 630.606201,656.032776 627.334290,664.479980 
	C624.573853,671.606567 621.231323,678.529236 618.847839,685.772949 
	C617.082764,691.137390 614.174377,693.386230 608.654297,692.404175 
	C607.212646,692.147766 605.647400,692.585266 604.333862,691.611328 
	C603.099854,688.922791 606.330139,686.714050 605.241882,684.047058 
	C603.179016,682.893982 602.506775,684.429321 601.768921,685.704895 
	C597.553833,692.991943 595.556274,693.795776 586.864990,691.641846 
	C586.082214,690.049072 587.085510,688.763000 587.626343,687.416626 
	C591.033508,678.934570 594.440613,670.452393 597.889160,661.987061 
	C601.791138,652.408508 604.321777,650.724426 614.744629,650.638916 
	C615.908447,650.629395 617.072510,650.645386 618.690857,650.661621 
M609.849792,670.588806 
	C613.411926,668.792480 613.522217,665.434875 614.331116,660.820801 
	C610.289246,663.842346 608.489319,666.436951 609.849792,670.588806 
z"/>
<path fill="#000000" opacity="1.000000" stroke="none" 
	d="
M341.181580,691.821045 
	C339.983185,688.853455 342.758606,686.678772 342.154480,684.013733 
	C340.137573,682.829468 339.381256,684.162109 338.564728,685.482605 
	C337.209747,687.673828 337.516571,691.274841 334.605347,692.006348 
	C331.122711,692.881409 327.400818,692.663757 324.069885,692.015137 
	C323.171387,691.018005 323.358124,690.174377 323.660522,689.423035 
	C327.876251,678.949646 332.040710,668.454346 336.395386,658.038635 
	C338.295197,653.494507 342.089203,651.163269 346.915222,650.797852 
	C350.218231,650.547607 353.574341,650.495056 356.871246,650.773682 
	C363.564331,651.339294 367.102722,655.929749 364.914062,662.120117 
	C361.597687,671.500244 357.528534,680.614014 353.792206,689.846130 
	C353.081390,691.602417 351.814087,692.421082 349.931396,692.351318 
	C347.116943,692.246948 344.301819,692.161011 341.181580,691.821045 
M350.306549,665.342529 
	C350.523254,664.175598 351.761108,662.967041 349.974213,661.682129 
	C346.691742,663.717346 345.853424,666.756836 345.490143,670.969849 
	C348.901093,670.050964 349.335999,667.891663 350.306549,665.342529 
z"/>
<path fill="#000000" opacity="1.000000" stroke="none" 
	d="
M176.329178,690.655151 
	C172.130386,693.667969 167.895020,691.954956 163.710480,692.168884 
	C163.130585,688.839172 164.847061,686.591309 165.777832,684.189392 
	C168.905869,676.117310 172.283112,668.141724 175.400360,660.065674 
	C177.861557,653.689209 182.361526,650.770264 189.168060,650.621277 
	C205.666229,650.260315 208.398361,654.101074 202.179672,669.461670 
	C199.993637,674.861389 197.266418,680.091919 195.621872,685.647034 
	C193.996567,691.137268 190.993301,693.306030 185.476578,692.395325 
	C184.029755,692.156494 182.477325,692.633911 180.989288,691.731018 
	C179.769363,689.011658 182.719604,686.851685 182.165894,684.204468 
	C179.139709,684.049683 179.139709,684.049683 176.329178,690.655151 
M188.738297,669.031311 
	C189.605469,666.844666 191.132629,664.801636 190.334412,661.659485 
	C186.699814,663.220398 185.903412,666.359680 185.635910,669.192932 
	C185.451385,671.147217 187.234100,670.589966 188.738297,669.031311 
z"/>
<path fill="#000000" opacity="1.000000" stroke="none" 
	d="
M657.431274,674.283081 
	C648.761597,695.643555 647.687988,692.170532 630.172119,692.356628 
	C627.052795,692.389709 623.877869,692.826172 620.799133,691.901306 
	C619.754944,689.877808 621.005798,688.289307 621.641235,686.682617 
	C625.795227,676.178772 630.119507,665.741089 634.162048,655.195129 
	C635.348999,652.098755 637.025024,650.609009 640.398926,650.821716 
	C643.876892,651.040955 647.402283,650.676331 650.858826,651.033386 
	C659.936829,651.971130 663.340210,657.332031 660.519653,665.984131 
	C659.645508,668.665710 658.560791,671.278564 657.431274,674.283081 
M644.709717,662.680786 
	C642.154419,669.085938 639.599121,675.491089 637.096252,681.764893 
	C639.030273,682.613525 639.807983,682.322571 640.044617,681.770020 
	C642.578552,675.851746 645.139771,669.939758 647.422424,663.923157 
	C647.982422,662.447266 647.034851,661.302429 644.709717,662.680786 
z"/>
<path fill="#000000" opacity="1.000000" stroke="none" 
	d="
M463.427368,657.528198 
	C468.452911,649.671326 478.384247,649.533142 485.754944,651.420349 
	C491.050751,652.776306 493.470428,659.817932 490.990723,665.000610 
	C489.654938,667.792480 481.675293,669.301819 478.175323,667.724548 
	C475.473328,666.506836 478.186432,663.944946 475.775055,661.882324 
	C471.548828,668.237061 469.668182,675.196411 466.766083,682.710571 
	C470.743683,682.123047 470.393311,680.448975 470.301971,678.511475 
	C470.067596,673.539734 471.965851,671.615723 476.982330,671.658020 
	C480.423828,671.687012 483.936127,671.016052 488.164795,672.539062 
	C485.703094,678.763916 483.351959,684.896973 480.833191,690.960388 
	C480.107452,692.707520 478.211670,692.953369 476.551178,693.000977 
	C471.568176,693.143677 466.563690,693.444153 461.600403,693.143005 
	C455.163422,692.752441 451.583923,687.970459 453.357239,681.708008 
	C455.708527,673.404480 458.897339,665.361511 463.427368,657.528198 
z"/>
<path fill="#000000" opacity="1.000000" stroke="none" 
	d="
M130.990829,686.035400 
	C135.160736,676.108215 139.545135,666.239868 143.423065,656.176331 
	C145.005936,652.068726 147.274078,650.613464 151.575836,650.769409 
	C159.504456,651.056824 167.450943,650.851440 175.389145,650.851440 
	C175.185410,659.921814 172.950867,662.226868 165.000092,662.276184 
	C162.504852,662.291687 160.008667,662.256958 157.514511,662.314148 
	C155.869125,662.351807 154.055740,662.252014 153.878632,664.758057 
	C155.509796,666.422424 157.615204,665.480408 159.492188,665.687622 
	C161.442612,665.902832 163.489807,665.304932 165.330017,666.373596 
	C165.593079,674.283997 163.115341,677.031189 155.716583,677.073364 
	C149.497955,677.108765 149.497955,677.108704 147.579437,679.874939 
	C152.648193,681.987793 158.151031,679.542664 163.087341,681.379944 
	C162.554550,690.433044 160.613083,692.380310 152.276917,692.386414 
	C144.984467,692.391785 137.692001,692.387512 130.655319,692.387512 
	C129.158249,690.057617 130.881134,688.474670 130.967361,686.355591 
	C131.030563,685.981689 131.001526,686.015686 130.990829,686.035400 
z"/>
<path fill="#000000" opacity="1.000000" stroke="none" 
	d="
M869.037476,666.801270 
	C869.620422,665.502991 870.203369,664.204773 870.851440,662.625122 
	C871.178406,661.918701 871.589417,661.523071 871.679871,661.064331 
	C873.574463,651.458008 879.958862,649.721924 888.588196,650.728455 
	C894.144958,651.376587 899.838745,650.850159 905.426514,650.850159 
	C905.805115,659.197449 903.103943,662.240479 895.902588,662.283264 
	C893.069519,662.300049 890.236389,662.296265 887.403259,662.302917 
	C885.637268,662.307068 884.085388,662.581848 883.958008,665.605347 
	C887.996033,665.605347 891.876587,665.605347 895.698486,665.605347 
	C896.090088,674.088867 893.478821,676.877625 886.207947,677.164062 
	C883.376465,677.275635 879.805481,675.628784 877.561096,679.862061 
	C882.864197,681.838196 888.298706,679.761597 893.288879,681.204163 
	C893.507812,689.402344 890.674805,692.415100 882.922424,692.405762 
	C875.462036,692.396729 868.001648,692.403809 860.206665,692.403809 
	C860.490723,690.390930 860.672668,689.101807 860.913574,687.427734 
	C861.587280,685.623901 862.202087,684.204956 863.112183,682.177612 
	C865.605896,676.769226 867.740662,671.944946 869.037476,666.801270 
z"/>
<path fill="#000000" opacity="1.000000" stroke="none" 
	d="
M289.954712,690.422241 
	C294.736206,678.127258 299.513641,666.258057 304.304626,654.394348 
	C304.935822,652.831299 305.648834,651.073792 307.600525,651.054749 
	C316.846893,650.964294 326.094666,651.014343 335.354340,651.014343 
	C334.979187,660.207275 332.995972,662.223022 324.881805,662.274109 
	C322.387604,662.289795 319.892303,662.251038 317.399506,662.315247 
	C315.754181,662.357544 313.947235,662.307495 313.906403,665.048584 
	C317.563293,666.739502 321.778992,664.670288 325.406036,666.381165 
	C325.313721,674.868347 323.191925,677.042969 315.081055,677.069397 
	C309.860321,677.086426 309.860321,677.086426 307.165680,679.798767 
	C312.484467,681.796631 317.874542,679.888611 322.787811,681.104004 
	C323.395599,689.014038 320.480194,692.380737 313.218567,692.386963 
	C307.066010,692.392212 300.912292,692.452698 294.761597,692.346069 
	C293.089203,692.317017 290.993042,693.123657 289.954712,690.422241 
z"/>
<path fill="#000000" opacity="1.000000" stroke="none" 
	d="
M732.849731,650.859131 
	C735.431946,651.039856 737.651978,650.411743 739.593872,651.691101 
	C739.154663,660.297607 737.225525,662.235474 729.094666,662.281860 
	C726.599121,662.296082 724.103088,662.265808 721.608032,662.304688 
	C719.935425,662.330811 718.152344,662.275146 717.989258,665.027649 
	C721.770569,666.730896 726.115723,664.746033 729.908447,666.286011 
	C729.645508,674.940186 727.575623,676.907715 719.517944,677.158325 
	C716.918518,677.239258 713.408264,675.568298 711.732239,679.936279 
	C716.961060,681.891907 722.425171,679.622070 727.399475,681.353149 
	C726.880981,690.459839 724.985657,692.384583 716.679810,692.385071 
	C709.258179,692.385498 701.836487,692.385193 694.669434,692.385193 
	C693.891602,689.776917 694.839600,688.310303 695.455688,686.802490 
	C699.794922,676.181946 704.256592,665.610168 708.463318,654.937683 
	C709.619751,652.003906 711.291016,650.775696 714.404358,650.843323 
	C720.390930,650.973450 726.382568,650.866882 732.849731,650.859131 
z"/>
<path fill="#000000" opacity="1.000000" stroke="none" 
	d="
M634.307922,403.401855 
	C634.304993,411.498047 634.162903,419.146545 634.365173,426.785889 
	C634.461853,430.433777 632.891602,431.970978 629.486328,432.138702 
	C628.656677,432.179535 627.827820,432.241058 626.999817,432.308807 
	C616.608887,433.158905 616.560547,433.158295 616.859314,422.412018 
	C617.020813,416.603943 617.373840,410.801086 617.654114,404.996552 
	C617.789368,402.192871 617.597168,399.850861 613.662354,400.870209 
	C611.102295,401.533447 609.943420,400.159271 609.893066,397.670319 
	C609.882996,397.171997 609.880066,396.673523 609.877014,396.175110 
	C609.819092,386.711182 609.979797,386.193329 619.245850,385.217285 
	C626.644287,384.437927 634.058350,383.299500 641.860840,383.676422 
	C642.770813,387.852295 641.953674,391.877594 641.301086,395.909149 
	C640.994690,397.802185 639.602112,398.257446 638.025818,398.295990 
	C634.878845,398.372955 634.123779,400.262756 634.307922,403.401855 
z"/>
<path fill="#000000" opacity="1.000000" stroke="none" 
	d="
M698.871582,662.838379 
	C691.957764,671.613953 685.254944,680.102295 678.570435,688.605042 
	C676.046021,691.816101 666.755432,693.890991 663.181030,692.066162 
	C661.425110,691.169800 661.652161,689.573486 661.812073,688.165466 
	C663.085754,676.949524 664.386108,665.735962 665.806824,654.537903 
	C666.465698,649.344666 670.671692,651.137512 673.686340,650.956604 
	C676.984985,650.758606 678.633179,652.454590 678.240295,655.882019 
	C677.656311,660.976746 677.097839,666.074280 676.380615,672.494873 
	C680.914429,666.856506 685.244934,662.472595 688.365234,657.351257 
	C692.829224,650.024475 699.086487,650.197083 706.738220,651.450378 
	C705.030151,656.065125 701.498718,658.955017 698.871582,662.838379 
z"/>
<path fill="#000000" opacity="1.000000" stroke="none" 
	d="
M581.328857,652.680176 
	C580.716797,654.773376 579.985413,656.460144 579.497864,658.214722 
	C578.650269,661.264709 576.765442,662.470154 573.613220,662.307556 
	C570.126221,662.127625 566.621765,662.310730 563.125549,662.274597 
	C560.601318,662.248474 558.963379,663.159973 558.794617,666.140320 
	C562.671387,669.216248 567.651794,665.513611 571.588440,668.010193 
	C570.958740,676.876404 569.463562,678.501709 561.052368,678.286743 
	C556.232117,678.163452 552.656616,678.444275 550.791687,684.234924 
	C547.784241,693.573792 545.828247,694.145508 535.676208,691.658508 
	C535.082764,689.924255 535.926636,688.413940 536.545959,686.911621 
	C540.922058,676.296936 545.428528,665.734802 549.684570,655.072571 
	C550.909790,652.003052 552.597107,650.667603 555.985718,650.773438 
	C562.972351,650.991638 569.970886,650.801453 576.963379,650.878418 
	C578.500122,650.895325 580.409241,650.200317 581.328857,652.680176 
z"/>
<path fill="#000000" opacity="1.000000" stroke="none" 
	d="
M216.569031,673.468140 
	C215.563065,676.122009 214.701385,678.424194 213.803650,680.822754 
	C217.032379,682.939575 220.696472,680.895569 223.598846,682.703552 
	C223.823792,689.994873 221.663544,692.381165 214.819977,692.387817 
	C208.896133,692.393494 202.972305,692.388977 196.470032,692.388977 
	C197.618866,686.301758 200.379227,681.708984 202.191086,676.806885 
	C204.548248,670.429565 207.303360,664.199524 209.880585,657.903320 
	C213.062378,650.130310 215.954910,648.928467 225.252350,652.119995 
	C222.400528,659.132324 219.556931,666.124390 216.569031,673.468140 
z"/>
<path fill="#000000" opacity="1.000000" stroke="none" 
	d="
M408.312500,660.429565 
	C408.654724,659.614014 408.819122,659.141052 409.024139,658.686462 
	C412.962341,649.954102 413.747589,649.570679 423.871155,651.468811 
	C425.140259,653.539673 423.671112,655.333069 422.988464,657.046021 
	C418.801208,667.553406 414.346802,677.955139 410.225586,688.487549 
	C408.950470,691.746399 406.910217,692.679321 403.713104,692.425720 
	C401.429169,692.244568 399.119293,692.390564 395.976410,692.390564 
	C399.213043,680.948181 404.520020,671.169739 408.312500,660.429565 
z"/>
</svg>